<svg width="396" height="331" viewBox="0 0 396 331" fill="none" xmlns="http://www.w3.org/2000/svg">
<path d="M51.0194 84.1263C45.1629 84.1263 33.0941 89.1088 28.3602 92.7731C20.967 98.4957 11.8454 103.864 7.36706 112.081C3.99294 118.272 -1.14381 133.983 4.17763 140.134C13.8261 151.287 25.0932 159.931 36.1195 169.514C41.828 174.475 49.2131 177.634 53.2568 184.154C56.1352 188.796 58.3214 193.276 60.4925 198.206C62.854 203.567 62.8282 215.393 60.7305 220.805C55.575 234.107 41.1085 239.792 34.8818 252.15C29.8987 262.04 27.2007 276.236 29.217 287.13C30.3846 293.439 30.5064 296.733 35.2151 300.592C38.2361 303.068 40.5307 305.307 43.7837 307.667C51.7305 313.43 60.6103 315.954 69.5371 319.409C74.9384 321.499 81.0194 322.221 86.6743 323.388C93.1085 324.716 99.002 326.815 105.668 326.926C113.128 327.05 120.401 328.694 127.947 328.694C133.945 328.694 141.091 329.951 146.655 327.368C159.108 321.584 177.805 318.043 184.261 303.884C186.657 298.629 189.838 292.465 190.259 286.59C190.837 278.54 188.89 269.238 186.88 261.485C183.654 249.044 176.597 239.357 176.597 226.062C176.597 209.365 188.289 194.633 202.303 187.2C209.219 183.532 216.775 178.773 224.581 177.669C232.615 176.534 241.332 175.704 249.43 175.704C271.036 175.704 288.601 192.541 310.648 191.573C321.25 191.107 335.227 191.663 344.494 185.874C354.023 179.922 364.977 173.299 372.818 165.092C381.11 156.414 385.689 144.099 388.242 132.372C390.448 122.239 394.976 114.45 393.812 103.631C393.245 98.3656 395.219 84.44 388.623 81.9646C376.504 77.4163 362.393 76.2898 349.683 75.0864C326.298 72.8722 304.597 67.7643 282.467 78.9185C272.984 83.6982 265.011 91.3545 255.476 96.0157C248.181 99.5822 241.162 103.99 233.817 107.414C224.332 111.834 214.469 116.839 203.826 117.338C194.327 117.784 184.072 120.585 174.455 119.058C166.362 117.773 158.228 111.621 151.748 106.922C141.277 99.3283 131.375 90.6863 120.52 83.7332C112.141 78.3656 102.288 72.2369 92.1487 72.2369C82.6582 72.2369 71.9255 70.2113 63.6819 75.7742C59.5012 78.5954 55.2063 81.3764 51.0194 84.1263ZM51.0194 84.1263C48.697 85.6515 40.0462 85.2591 39.1275 87.1554" stroke="white" stroke-width="3" stroke-linecap="round"/>
<path d="M6.83225 113.273C6.83225 108.047 5.52863 102.891 5.28578 97.6618C4.84516 88.1746 4.75155 78.4787 7.61816 69.3591C11.4978 57.0167 16.8858 44.4919 25.3645 35.0247C34.2854 25.0635 45.4308 17.9528 56.6487 11.4436C61.7346 8.49254 67.1476 6.05011 72.7471 4.4703C75.157 3.79039 77.6096 3.30434 80.0485 2.7645C81.3773 2.47036 82.7636 2.03032 84.1301 2.00029C85.0779 1.97947 83.1449 3.06752 82.9259 3.24212C81.9768 3.999 81.0273 4.74473 80.0738 5.49378C77.0321 7.88335 74.7968 11.4155 73.2288 15.0326C71.998 17.872 71.5312 21.1315 71.3908 24.2303C71.227 27.8466 70.6683 31.3865 71.0612 35.0247C71.7757 41.6396 72.2901 48.0675 73.7992 54.5664C74.7541 58.6782 76.4061 61.7139 78.5781 65.1151C79.3786 66.3685 80.4931 67.4327 81.4302 68.5676C82.2157 69.519 82.7917 70.6074 83.9527 71.024" stroke="white" stroke-width="3" stroke-linecap="round"/>
<path d="M287.841 73.782C287.841 68.3028 284.463 62.2889 282.102 57.5747C278.952 51.2833 275.183 44.7608 270.833 39.2674C267.835 35.4818 264.336 32.1073 261.52 28.1754C258.986 24.6361 256.132 21.4053 252.886 18.5372C249.596 15.6303 245.93 12.564 242.139 10.3797C241.086 9.7732 239.759 9.35089 238.904 8.46818C238.751 8.3102 243.176 9.14017 243.808 9.32969C257.066 13.3022 270.742 15.266 283.85 19.7756C290.517 22.069 296.819 26.1044 303.075 29.3331C306.638 31.1714 310.84 33.5504 313.666 36.4675C316.136 39.0161 318.665 41.7156 320.918 44.4635C322.722 46.6637 325.375 48.822 326.527 51.4633C328.788 56.6501 332.928 64.5435 331.04 70.3898" stroke="white" stroke-width="3" stroke-linecap="round"/>
<ellipse cx="72.1844" cy="119.047" rx="11.1885" ry="9.97261" fill="url(#paint0_radial_16_86)"/>
<path d="M130.773 192.258C130.773 193.942 130.626 195.765 130.367 197.425C129.915 200.317 130.115 203.194 129.901 206.097C129.731 208.405 129.685 208.082 131.765 208.192C135.996 208.416 139.604 207.544 143.776 206.796C148.207 206 153.046 206.867 157.38 205.725C158.695 205.379 157.344 197.972 157.29 196.897C157.184 194.793 157.127 192.684 157.02 190.583C156.99 190.005 156.478 189.765 156.478 189.187" stroke="white" stroke-width="3" stroke-linecap="round"/>
<ellipse cx="50.0836" cy="21.1007" rx="50.0836" ry="21.1007" transform="matrix(0.965733 -0.259537 0.24464 0.969614 238.995 123.524)" fill="url(#paint1_radial_16_86)"/>
<path d="M69.5012 110.612C56.4188 109.643 62.2693 120.107 63.3971 124.181C65.1932 130.669 77.4189 129.363 80.5878 125.365C84.1795 120.835 84.7917 115.625 79.3617 112.658C76.6945 111.201 74.0036 109.643 70.9098 109.643" stroke="white" stroke-width="3" stroke-linecap="round"/>
<path d="M303.223 90.6372C298.739 91.7686 295.262 94.1398 291.198 96.2371C284.833 100.616 278.075 103.487 272.99 110.291C269.826 114.522 266.867 118.926 263.494 122.998C260.328 126.821 257.323 128.841 252.903 130.886C246.707 133.753 240.155 134.007 233.73 135.948C229.502 137.225 225.119 136.944 220.765 136.944C212.487 136.944 203.668 137.084 196.349 141.548C190.795 144.935 185.621 151.211 184.245 157.782C183.573 160.991 184.941 164.176 186.488 166.882C188.9 171.099 192.816 170.866 197.027 170.866C200.963 170.866 203.879 169.415 206.914 166.747C211.225 162.956 215.692 159.348 220.661 156.436C230.059 150.927 240.241 151.969 250.608 152.424C258.807 152.784 266.46 153.948 274.111 157.082C281.93 160.284 289.596 163.377 297.876 165.051C301.625 165.809 305.255 167.029 309.04 167.635C312.473 168.186 316.011 167.958 319.475 167.958C324.323 167.958 328.351 167.213 332.987 165.751C343.145 162.547 351.834 154.978 358.447 146.636C361.518 142.763 362.67 138.225 364.917 133.929C366.882 130.169 367.543 124.959 367.238 120.71C366.934 116.467 364.785 112.496 362.986 108.783C360.941 104.561 358.681 100.003 355.891 96.2371C352.768 92.0228 346.385 91.3736 341.909 89.5603C336.274 87.2776 330.996 87.0296 325.031 87.0296C317.594 87.0296 310.405 88.8254 303.223 90.6372Z" stroke="white" stroke-width="3" stroke-linecap="round"/>
<path d="M218.329 138.823C217.026 138.973 215.528 142.18 215.204 143.35C214.751 144.989 214.835 146.764 214.835 148.559C214.835 149.46 214.835 150.362 214.835 151.263C214.835 152.491 215.689 152.784 216.233 153.767C216.903 154.978 219.294 154.516 219.727 155.41" stroke="white" stroke-width="3" stroke-linecap="round"/>
<path d="M334.32 89.7857C334.938 89.8567 335.903 91.2303 336.338 91.6687C337.538 92.8791 338.879 94.0776 339.754 95.5548C341.777 98.9709 343.377 102.366 344.024 106.372C345.511 115.576 345.718 124.58 344.374 133.775C343.424 140.267 342.367 148.012 339.56 153.967C337.887 157.517 336.686 160.899 333.97 163.703" stroke="white" stroke-width="3" stroke-linecap="round"/>
<path d="M33.3555 280.953C34.2547 283.041 33.8384 285.406 34.8207 287.433C35.5403 288.919 36.659 290.051 37.5417 291.418C40.4125 295.862 44.2495 297.009 48.6119 299.531C54.4089 302.881 60.1569 305.619 66.4266 307.956C71.0456 309.677 75.989 311.724 80.8457 312.492C89.3492 313.837 98.0604 313.555 106.614 312.924" stroke="white" stroke-width="3" stroke-linecap="round"/>
<path d="M114.149 318.109C117.497 318.109 121.331 318.279 124.661 318.757C132.155 319.831 139.143 316.832 146.29 314.988C154.74 312.808 162.429 306.444 169.803 301.907C175.069 298.667 178.002 294.726 179.454 288.73" stroke="white" stroke-width="3" stroke-linecap="round"/>
<path d="M73.2015 303.428C74.8602 304.136 76.3349 304.808 77.6939 305.843C78.8701 306.738 82.3989 306.925 83.961 307.229C90.7597 308.552 99.0167 308.94 105.924 308.034C110.764 307.398 115.613 307.051 120.371 306.022C125.191 304.979 130.422 304.195 134.985 302.534C138.4 301.29 141.334 298.744 144.358 296.989C147.192 295.344 149.412 292.923 152.289 291.444C155.824 289.627 157.823 288.746 159.665 285.721C161.828 282.169 164.598 278.905 166.515 275.235C168.712 271.026 168.93 265.326 169.427 260.769C170.041 255.138 169.537 249.314 169.537 243.665C169.537 238.117 168.3 232.682 168.068 227.165C167.871 222.479 167.282 217.081 169.149 212.565C170.426 209.476 173.319 206.07 176.026 203.644C177.115 202.669 179.538 200.8 181.018 200.402" stroke="white" stroke-width="3" stroke-linecap="round"/>
<path d="M48.0738 280.039C49.1155 282.942 52.7787 284.654 55.3531 285.796C59.9061 287.816 64.1782 289.837 69.0471 290.919C76.5122 292.579 84.6134 293.714 92.2376 293.093C97.4469 292.668 102.536 291.314 107.117 288.674C111.67 286.05 115.489 282.256 119.612 279.003" stroke="white" stroke-width="3" stroke-linecap="round"/>
<path d="M161.781 220.456C161.781 228.694 160.13 236.712 158.909 244.836C158.228 249.364 157.696 254.034 156.273 258.393C154.577 263.589 151.567 267.851 147.948 271.807C141.297 279.075 133.944 285.977 126.389 292.215" stroke="white" stroke-width="3" stroke-linecap="round"/>
<path d="M44.7217 146.865C48.288 146.865 52.0036 147.955 55.2921 149.37C58.1183 150.585 61.3237 152.633 63.8125 154.522C67.2827 157.155 70.0579 160.32 73.0859 163.445C77.2169 167.709 80.8716 172.584 85.3017 176.513C92.7028 183.078 101.317 186.694 110.64 189.452C115.946 191.021 121.342 191.777 126.844 192.057C133.075 192.374 139.756 192.734 145.893 191.395C150.027 190.492 153.662 188.585 157.621 187.178C162.459 185.457 167.692 184.913 172.737 184.17" stroke="white" stroke-width="3" stroke-linecap="round"/>
<path d="M59.068 154C58.9131 154.719 57.379 155.224 56.8431 155.737C55.0447 157.461 52.9373 158.794 50.8001 160.019C49.6718 160.666 57.1383 172.33 58.647 174.37C58.9293 174.752 59.8963 176.714 60.481 176.558C61.3086 176.336 62.1643 175.768 62.9012 175.348C64.5665 174.398 66.4573 173.823 68.2077 173.052C69.4822 172.49 71.052 171.872 72.4619 171.872C73.8954 171.872 75.7954 171.676 77.1971 171.314" stroke="white" stroke-width="3" stroke-linecap="round"/>
<path d="M83.9618 178.854C82.3697 179.991 81.2845 182.032 80.4141 183.788C79.3413 185.952 77.8691 188.083 76.4455 190.024C75.3054 191.579 75.1487 191.324 76.8514 193.003C80.9022 196.998 85.9742 198.867 91.2375 200.497C93.2562 201.122 95.2478 201.826 97.2204 202.591C98.3229 203.019 99.9459 204.143 101.159 204.143C102.351 204.143 104.239 199.554 104.661 198.681C106.012 195.894 107.915 193.216 108.856 190.304" stroke="white" stroke-width="3" stroke-linecap="round"/>
<path d="M72.3595 145.285C72.5686 147.376 76.4235 147.308 77.8559 147.247C81.2621 147.103 84.3973 145.97 87.5636 144.793C91.7793 143.227 95.7113 141.303 99.7392 139.31C102.051 138.167 104.224 136.729 106.247 135.133C108.437 133.408 110.644 131.639 112.721 129.781C116.16 126.705 119.196 122.697 121.438 118.671C122.885 116.073 123.764 113.339 124.63 110.516C124.672 110.38 125.203 108.793 125.273 108.793C125.398 108.793 125.273 109.044 125.273 109.169C125.273 109.415 125.273 109.661 125.273 109.907C125.273 111.659 125.62 113.361 125.95 115.082C126.313 116.981 126.575 118.92 127.365 120.702C127.807 121.7 128.146 122.737 128.472 123.778C128.967 125.357 129.688 126.76 130.38 128.256C131.131 129.879 131.791 131.543 132.533 133.171C133.54 135.381 134.773 137.49 135.979 139.598C138.243 143.555 141.29 147.142 144.046 150.768C145.361 152.498 146.598 154.327 148.161 155.848C149.677 157.321 151.543 158.602 153.357 159.683C155.073 160.706 156.781 161.801 158.717 162.363C160.813 162.971 163.16 163.005 165.327 163.005C167.157 163.005 168.927 162.657 170.762 162.834C172.509 163.003 174.219 163.57 175.972 163.251" stroke="white" stroke-width="3" stroke-linecap="round"/>
<path d="M81.7117 151.93C82.4034 151.315 83.3402 151.029 84.1796 150.693C85.9176 149.998 87.8454 149.464 89.7102 149.25C94.2625 148.73 99.1915 148.333 103.315 150.795C103.773 151.069 104.276 151.237 104.655 151.616C105.258 152.22 105.729 153.131 106.446 153.592C107.595 154.33 108.299 155.573 109.522 156.237C110.613 156.829 111.496 157.84 112.612 158.398C114.257 159.22 116.295 160.108 118.129 160.291C120.53 160.531 122.971 161.047 125.396 160.695C126.74 160.499 128.298 160.075 129.45 159.307C131.004 158.271 132.57 157.323 134.256 156.511C135.5 155.912 137.152 156.408 138.447 156.675C139.826 156.959 140.701 157.336 141.762 158.179C142.875 159.062 143.998 159.885 145.153 160.722C145.951 161.299 146.99 161.555 147.847 162.028C148.975 162.65 150.107 163.298 151.333 163.716C153.099 164.319 154.793 165.127 156.59 165.637C158.254 166.11 160.097 166.43 161.82 166.574" stroke="white" stroke-width="3" stroke-linecap="round"/>
<path d="M94.6324 155.499C93.0845 155.499 93.6981 158.081 94.3863 157.639C94.6209 157.488 95.8632 155.991 95.1246 155.991" stroke="white" stroke-width="3" stroke-linecap="round"/>
<path d="M137.086 163.128C136.85 163.158 136.95 163.969 137.018 164.113C137.126 164.343 138.32 165.178 138.433 164.783C138.649 164.028 138.139 163.778 137.578 163.497" stroke="white" stroke-width="3" stroke-linecap="round"/>
<path d="M64.7318 133.311C65.1379 133.357 65.5347 133.675 65.9227 133.799C66.4217 133.96 67.0184 133.848 67.5431 133.975C69.0512 134.342 70.6365 134.19 72.1798 134.19C74.1183 134.19 76.2612 133.574 78.0561 132.882C79.1442 132.462 80.1293 131.899 81.0724 131.213C81.9222 130.595 82.2988 129.801 83.0052 129.094" stroke="white" stroke-linecap="round"/>
<path d="M10.7902 134.893C10.7585 134.006 10.4856 133.157 10.4485 132.267C10.4145 131.451 10.5176 130.607 10.3997 129.797C10.2095 128.49 10.2631 127.176 10.2631 125.854C10.2631 123.435 11.1098 121.028 11.7566 118.728C14.4406 109.185 25.7649 104.131 34.6861 102.914" stroke="white" stroke-linecap="round"/>
<path d="M47.5126 95.1833C49.8728 93.0198 52.6629 91.4435 55.2046 89.5217C59.777 86.0645 65.5942 84.2175 71.2231 83.333C72.4498 83.1402 73.6673 82.9604 74.8836 82.7082C76.1188 82.4522 77.3625 82.5844 78.6125 82.4935C81.6238 82.2745 84.8197 82.0091 87.8371 82.2006C91.024 82.403 94.4934 83.7904 97.2373 85.3829C99.3876 86.6308 101.386 88.0314 103.68 89.0336C105.771 89.9473 107.956 90.6254 110.064 91.4935" stroke="white" stroke-linecap="round"/>
<path d="M134.311 99.4003C136.344 102.058 138.699 104.095 141.242 106.263C143.659 108.323 145.518 110.908 147.694 113.203C150.804 116.482 154.303 119.093 158.559 120.661" stroke="white" stroke-linecap="round"/>
<path d="M241.843 123.823C242.953 124.489 245.199 124.501 246.431 124.077C248.209 123.466 250.054 122.728 251.78 121.969C253.594 121.171 254.913 119.061 256.251 117.674C257.854 116.011 259.702 114.415 261.034 112.539C262.505 110.467 264.046 108.423 265.739 106.526C267.381 104.686 269.089 102.603 271.02 101.069C273.134 99.3903 275.162 97.4931 277.199 95.7104C279.325 93.8499 281.768 92.2429 284.188 90.7907C285.421 90.0507 286.75 89.5347 288.014 88.8579C289.675 87.969 291.282 86.9886 293.081 86.398C296.819 85.1704 300.793 83.8033 304.677 83.1475C312.371 81.8486 319.764 79.7212 327.626 79.7212C329.064 79.7212 330.503 79.7069 331.941 79.7212C334.169 79.7435 336.369 80.2627 338.588 80.4241C342.252 80.6905 345.911 81.2139 349.365 82.5423C352.709 83.8286 355.694 86.0103 358.199 88.5456C359.694 90.0585 361.1 91.577 362.709 92.9772C364.088 94.1775 365.117 95.3866 366.067 96.9404" stroke="white" stroke-linecap="round"/>
<path d="M366.77 101.684C366.77 102.794 367.682 103.627 368.136 104.632C369.235 107.065 370.503 109.426 371.582 111.866C372.181 113.219 372.337 114.729 372.607 116.17C373.201 119.34 373.624 122.521 373.788 125.746C373.982 129.554 373.556 133.215 373.271 137.001C372.976 140.916 372.645 144.651 371.514 148.422" stroke="white" stroke-linecap="round"/>
<path d="M327.236 175.481C332.052 175.722 336.576 174.984 341.019 172.982C345.815 170.82 350.18 167.61 354.724 164.977C357.582 163.321 360.402 161.59 362.904 159.413C364.786 157.777 365.986 156.239 367.121 154.045" stroke="white" stroke-linecap="round"/>
<path d="M269.956 167.223C270.454 167.268 270.777 167.578 271.186 167.828C271.826 168.219 272.613 168.383 273.314 168.628C277.187 169.984 281.202 170.741 285.106 171.967C287.416 172.692 289.677 173.48 292.075 173.88C294.962 174.361 297.862 174.354 300.773 174.534C306.38 174.88 312.415 176.255 317.923 174.602" stroke="white" stroke-linecap="round"/>
<path d="M220.583 169.682C222.658 168.52 224.519 167.282 226.723 166.354C227.669 165.955 228.622 165.904 229.622 165.739C231.336 165.456 233.04 165.086 234.746 164.763C239.909 163.785 245.329 164.229 250.55 164.45C253.963 164.595 258.309 164.549 261.171 166.695" stroke="white" stroke-linecap="round"/>
<path d="M358.863 83.5868C359.362 83.6422 359.956 84.1984 360.356 84.4653C361.089 84.954 361.885 85.3379 362.689 85.6952C363.42 86.0199 363.916 86.6673 364.495 87.1887C365.358 87.9655 366.223 88.7508 366.906 89.6974C368.009 91.2269 368.92 92.8897 369.932 94.4805C370.376 95.1785 370.618 95.9642 370.996 96.6963C371.492 97.656 372.204 98.5617 372.568 99.576C373.258 101.501 374.308 103.253 375.028 105.159C375.798 107.198 376.234 109.224 376.687 111.348C377.209 113.791 378.082 116.079 378.327 118.591C378.505 120.411 378.286 122.253 378.005 124.048C377.549 126.952 377.276 129.849 377.136 132.784" stroke="white" stroke-linecap="round"/>
<path d="M369.932 85.8709C370.775 85.9646 371.916 87.6298 372.529 88.1551C373.492 88.9809 374.162 89.8831 375.038 90.8102C377.03 92.9194 379.114 95.7146 380.026 98.5315C381.109 101.88 382.011 105.218 382.271 108.732C382.565 112.717 382.583 116.663 382.583 120.661" stroke="white" stroke-linecap="round"/>
<path d="M382.934 88.1551C383.254 89.2745 384.164 90.2353 384.604 91.3178C385.213 92.8165 385.817 94.3105 386.185 95.8959C387.292 100.663 387.88 105.435 387.151 110.294" stroke="white" stroke-linecap="round"/>
<path d="M260.468 101.157C258.878 102.615 256.723 103.973 255.685 105.901C255.213 106.778 254.36 107.641 253.713 108.4C252.282 110.079 250.558 111.527 249.223 113.281C247.269 115.847 244.654 117.267 241.98 118.943C237.423 121.796 232.064 123.138 227.084 125.053" stroke="white" stroke-linecap="round"/>
<path d="M181.049 155.45C181.095 154.99 181.445 154.631 181.537 154.181C181.657 153.595 181.682 152.896 181.742 152.297C181.977 149.943 183.283 147.345 184.748 145.533C187.71 141.869 191.798 138.988 195.847 136.65C200.996 133.676 206.846 133.238 212.5 131.73" stroke="white" stroke-linecap="round"/>
<path d="M219.001 133.663C221.773 133.663 224.43 132.965 227.181 132.784C229.364 132.641 231.577 132.526 233.663 131.808C235.479 131.183 236.95 130.039 238.68 129.27" stroke="white" stroke-linecap="round"/>
<path d="M38.3852 273.411C38.2203 271.597 37.2738 269.812 37.1832 268.002C37.1085 266.507 37.1832 264.99 37.1832 263.494C37.1832 261.589 38.1092 260.426 38.7525 258.753C39.0684 257.932 40.1226 257.298 40.639 256.583C41.3526 255.595 42.0644 254.439 42.9261 253.578C46.6287 249.875 51.3155 246.96 55.3634 243.661C58.7232 240.924 61.4499 237.96 64.2114 234.646C67.9326 230.181 68.0386 224.543 69.9375 219.321" stroke="white" stroke-width="3" stroke-linecap="round"/>
<path d="M51.9077 263.795C51.9077 270.597 58.8975 273.13 64.1947 275.514C66.8617 276.714 69.6495 277.041 72.5419 277.467C76.996 278.125 81.67 278.766 86.0977 277.618C91.5049 276.216 95.8085 273.866 100.154 270.389C104.955 266.548 110.442 263.755 115.613 260.489" stroke="white" stroke-width="3" stroke-linecap="round"/>
<path d="M16.4158 143.026C16.5979 144.665 18.407 146.255 19.3767 147.467C21.3467 149.93 23.8033 151.209 26.2406 153.105C28.8378 155.125 31.7037 157.093 34.4504 158.907C35.8656 159.841 37.0795 160.878 38.2787 162.077C39.2288 163.027 40.4646 163.491 40.9106 164.829" stroke="white" stroke-linecap="round"/>
<path d="M29.0669 115.57C26.1257 116.954 22.099 117.25 20.6029 120.669C19.9335 122.199 19.285 123.673 19.1225 125.38C18.8568 128.169 19.6458 130.855 19.6458 133.605" stroke="white" stroke-linecap="round"/>
<path d="M29.8745 121.223C29.1375 121.386 28.068 123.18 27.6015 123.78C26.9217 124.654 26.4344 126.617 26.3752 127.683C26.3164 128.742 25.9842 130.167 25.7023 131.182C25.327 132.533 25.5677 134.229 25.5677 135.623C25.5677 138.635 26.6168 140.826 27.8557 143.579C29.6795 147.632 33.3704 150.423 35.7963 154.062" stroke="white" stroke-linecap="round"/>
<path d="M60.2912 104.803C60.203 105.508 58.486 106.309 57.9733 106.822C56.6562 108.139 54.9118 109.126 53.6216 110.515C51.9096 112.359 51.1727 115.766 50.7355 118.127C50.3094 120.428 50.3317 122.663 50.3317 124.991" stroke="white" stroke-linecap="round"/>
<path d="M78.3258 102.111C82.4386 102.111 85.9131 102.108 89.003 105.252C90.6388 106.916 91.8753 108.953 92.7266 111.129C93.7673 113.788 94.6931 117.684 93.6687 120.415" stroke="white" stroke-linecap="round"/>
<path d="M55.446 138.45C55.9182 138.45 56.8685 138.843 57.3302 139.048C58.4973 139.567 60.0914 139.76 61.3678 139.796C64.0592 139.87 67.1016 140.117 69.7122 139.392C72.637 138.579 75.9128 138.531 78.7146 137.224C80.7732 136.263 82.2798 134.496 84.2327 133.365C86.9921 131.768 89.3576 130.349 91.5153 127.952" stroke="white" stroke-linecap="round"/>
<path d="M77.3871 195.997C76.9132 197.576 76.3152 199.774 77.0951 201.334C77.3795 201.903 77.8972 202.374 78.2793 202.883C79.2624 204.194 79.5968 205.594 79.5771 207.207C79.5486 209.55 78.0389 211.824 78.7011 214.215C78.9837 215.235 79.1391 215.963 79.1391 217.03C79.1391 218.268 79.2182 219.24 79.8854 220.315C80.5566 221.396 80.997 222.252 81.0372 223.559C81.0553 224.147 81.0645 225.197 81.4184 225.709C81.7227 226.148 82.4585 226.252 82.9352 226.398C83.7453 226.646 84.2348 227.977 84.4764 228.702C85.0057 230.29 84.645 231.766 84.6873 233.374C84.7497 235.747 86.4058 236.291 88.3942 236.659C89.3573 236.837 90.3106 235.625 90.933 235.012C91.5205 234.434 92.3603 233.731 92.4174 232.847C92.4997 231.571 92.5849 230.054 92.2471 228.815C91.8247 227.267 90.8397 225.888 90.4707 224.33C90.2833 223.539 90.1188 222.628 90.3815 221.84C90.7543 220.721 91.528 220.445 92.4093 219.804C92.6692 219.615 93.4125 219.455 93.5611 219.211C93.992 218.506 94.4536 217.815 94.8751 217.103C95.1064 216.712 95.4357 214.816 95.8647 214.693C96.2189 214.592 96.5251 214.341 96.6272 213.955C97.0167 212.484 95.3456 211.381 95.3456 209.932C95.3456 208.615 95.9532 207.362 96.8786 206.436C97.4289 205.886 98.0932 205.653 98.7037 205.195" stroke="#FF0000" stroke-linecap="round"/>
<path d="M115.348 192.493C114.955 192.517 114.709 192.964 114.464 193.239C114.043 193.713 113.785 194.287 113.418 194.796C113.114 195.218 112.736 195.526 112.501 195.997C112.176 196.648 111.683 197.271 111.406 197.927C111.039 198.796 110.516 200.123 110.53 201.058C110.552 202.474 111.898 203.137 112.128 204.4C112.339 205.561 111.284 206.668 110.895 207.685C110.454 208.838 109.935 209.979 109.038 210.857C108.064 211.809 106.686 212.257 105.598 213.047C104.795 213.63 104.286 214.607 103.887 215.496C103.273 216.865 102.729 218.396 102.435 219.868C102.273 220.679 102.09 222.32 102.386 223.121C102.479 223.373 102.84 223.455 103.003 223.665C103.178 223.89 103.084 224.351 103.084 224.614C103.084 227 102.792 229.405 102.792 231.776C102.792 233.047 102.987 234.171 102.711 235.434C102.357 237.049 101.547 238.158 100.472 239.352C98.9025 241.096 99.9692 244.054 100.018 246.044C100.077 248.493 101.097 251.489 100.237 253.879C99.7444 255.247 98.415 256.347 97.3896 257.319C96.9978 257.69 96.4498 257.762 96.1486 257.229C95.3706 255.853 94.2876 254.696 93.8125 253.166C93.4736 252.074 93.3015 251.166 93.3015 250.018C93.3015 248.926 93.721 248.014 94.0315 246.985C94.5858 245.147 94.7488 243.677 94.6074 241.769C94.4908 240.195 93.0079 238.93 92.3119 237.608C91.9269 236.876 91.2218 236.187 90.9655 235.418" stroke="#FF0000" stroke-linecap="round"/>
<path d="M127.759 197.165C127.434 197.337 127.075 197.558 126.915 197.895C126.682 198.387 126.301 198.524 126.006 198.949C125.001 200.401 125.135 202.122 125.268 203.784C125.388 205.284 126.476 206.578 125.828 208.148C125.321 209.375 124.374 210.193 123.703 211.295C123.19 212.137 123.013 213.273 122.948 214.239C122.797 216.511 123.816 218.449 124.546 220.526C124.833 221.34 125.479 221.941 125.828 222.716C126.224 223.594 126.169 224.83 126.363 225.774C126.778 227.788 127.174 229.689 127.174 231.768C127.174 233.319 126.584 236.261 128.424 237.097C130.644 238.106 130.533 232.214 130.533 231.216C130.533 229.82 130.352 228.415 130.249 227.023C130.206 226.451 130.273 225.962 130.395 225.417C130.53 224.81 131.034 224.422 131.263 223.851C131.734 222.672 132.285 221.301 132.285 220.014C132.285 218.438 131.59 216.946 131.555 215.383C131.516 213.695 132.431 212.242 132.431 210.597" stroke="#FF0000" stroke-linecap="round"/>
<path d="M129.949 237.9C130.068 239.57 130.709 241.269 130.314 243.01C129.815 245.204 130.091 247.247 131.23 249.175C131.668 249.916 131.911 250.585 132.723 250.927C133.661 251.322 134.353 250.623 134.986 250.018C135.62 249.411 135.745 248.602 136.089 247.828C136.466 246.98 136.809 246.132 136.924 245.2C137.162 243.273 137.154 240.891 136.738 238.995C136.408 237.491 135.935 236.257 135.935 234.688C135.935 233.108 136.52 232.073 137.103 230.632C137.653 229.271 138.458 227.945 138.904 226.56C139.497 224.717 139.877 222.768 139.877 220.826C139.877 219.95 139.877 219.074 139.877 218.198C139.877 217.558 139.669 217.053 139.593 216.446C139.464 215.417 139.293 214.415 139.293 213.371C139.293 212.623 139.41 210.393 140.169 210.013" stroke="#FF0000" stroke-linecap="round"/>
<path d="M126.152 212.495C125.241 213.52 125.965 216.176 126.517 217.159C126.89 217.821 127.759 218.756 127.759 219.503C127.759 220.764 127.905 222.025 127.905 223.3" stroke="#CD0000" stroke-linecap="round"/>
<path d="M137.103 218.043C135.551 219.44 134.923 221.867 134.475 223.884C133.773 227.039 133.891 230.274 133.891 233.52" stroke="#CD0000" stroke-linecap="round"/>
<path d="M110.238 195.267C109.199 196.435 108.402 198.283 108.186 199.793C107.807 202.446 108.104 204.555 106.004 206.655" stroke="#CD0000" stroke-linecap="round"/>
<path d="M102.208 213.809C102.13 214.505 101.334 215.264 101.04 215.926C100.667 216.766 100.374 217.664 100.196 218.595C99.7169 221.111 99.8091 223.571 100.31 226.074" stroke="#CD0000" stroke-linecap="round"/>
<path d="M99.8717 233.812C99.356 234.041 99.0886 235.819 98.9876 236.375C98.8544 237.108 98.6828 237.816 98.5496 238.549C98.2018 240.461 97.7187 242.173 98.1197 244.178" stroke="#CD0000" stroke-linecap="round"/>
<path d="M86.1473 233.958C86.1473 234.485 86.6909 234.688 87.1694 234.688C87.6913 234.688 88.0347 234.396 88.4834 234.396" stroke="#CD0000" stroke-linecap="round"/>
<path d="M81.0372 201.691C81.0372 202.658 81.0094 203.64 81.0372 204.611C81.087 206.355 81.68 208.058 82.0268 209.754C82.9186 214.114 80.835 219.739 84.3953 223.3" stroke="#CD0000" stroke-linecap="round"/>
<path d="M90.5275 217.897C91.3405 217.897 91.6515 217.065 92.2065 216.51C92.8056 215.911 92.6314 215.156 92.7256 214.401C92.9444 212.652 92.5923 210.681 93.1555 208.991" stroke="#CD0000" stroke-linecap="round"/>
<path d="M86.4393 226.22C86.5164 227.068 86.6817 228.32 87.0963 229.067C87.3237 229.476 87.4035 229.998 87.6885 230.365C87.954 230.706 88.3089 230.678 88.6294 230.892" stroke="#CD0000" stroke-linecap="round"/>
<path d="M90.2354 232.352C90.3066 231.782 90.6734 231.388 90.6734 230.746C90.6734 230.193 90.4426 229.681 89.9434 229.432" stroke="#CD0000" stroke-linecap="round"/>
<defs>
<radialGradient id="paint0_radial_16_86" cx="0" cy="0" r="1" gradientUnits="userSpaceOnUse" gradientTransform="translate(72.1844 119.047) rotate(90) scale(9.97261 11.1885)">
<stop offset="0.0395864" stop-color="#FF0000"/>
<stop offset="0.772314" stop-color="#FF0000" stop-opacity="0"/>
</radialGradient>
<radialGradient id="paint1_radial_16_86" cx="0" cy="0" r="1" gradientUnits="userSpaceOnUse" gradientTransform="translate(50.0836 21.1007) rotate(90) scale(21.1007 50.0836)">
<stop offset="0.552083" stop-color="#FF0000"/>
<stop offset="1" stop-color="#FF0000" stop-opacity="0"/>
</radialGradient>
</defs>
</svg>
