<svg width="388" height="115" viewBox="0 0 388 115" fill="none" xmlns="http://www.w3.org/2000/svg">
<g clip-path="url(#clip0_16_87)">
<path d="M165.914 34.6504C150.958 34.6504 134.654 34.4366 121.964 43.794C117.67 46.9603 117.017 50.8791 115.981 55.7596C115.507 57.9951 115.153 58.9959 113.423 60.7265C111.026 63.1233 108.246 64.3314 104.938 64.9408C99.5954 65.9249 92.3995 65.8446 88.4379 70.2463C85.6025 73.3968 85.0416 80.1125 86.0673 84.0181C86.7174 86.4932 88.351 88.5261 90.6203 89.7C93.7988 91.344 96.7434 93.0064 100.14 94.1777C101.608 94.6839 103.175 96.9172 104.298 97.9781C106.906 100.441 106.311 102.704 106.311 106.125C106.311 107.443 106.254 109.604 106.988 110.772C107.484 111.558 108.05 112.339 108.343 113.217" stroke="white" stroke-width="3" stroke-linecap="round"/>
<path d="M165.575 35.3277C171.85 35.3277 177.719 32.5796 184.05 32.9948C187.727 33.2359 194.147 34.1365 196.9 36.8892C199.952 39.9407 200.717 44.7481 203.861 47.7825C206.635 50.4585 209.807 52.5666 213.739 52.5989C217.319 52.6282 220.896 52.1507 224.387 51.3948C228.908 50.4161 233.385 49.2843 237.896 48.2717C241.269 47.5143 245.121 46.6624 248.544 47.6132C252.507 48.7139 255.426 52.2773 257.951 55.3081C260.868 58.8075 263.358 62.6289 266.305 66.1073C268.297 68.459 271.334 70.9146 271.949 73.9903C272.604 77.2676 276.102 81.3353 278.609 83.3408C279.942 84.4068 281.403 84.9334 282.767 85.8431C284.459 86.971 285.973 88.43 287.489 89.7752C290.106 92.097 293.997 97.5316 292.644 101.289C291.685 103.954 292.716 106.705 292.569 109.492C292.501 110.79 291.27 113.02 290.198 113.556" stroke="white" stroke-width="3" stroke-linecap="round"/>
<path d="M128.944 106.095C129.227 104.87 130.317 103.54 130.935 102.476C132.076 100.511 133.358 98.356 134.956 96.7253C137.063 94.5756 139.392 92.6275 142.094 91.2762C145 89.8235 148.439 89.1931 151.565 88.3607C159.712 86.1907 168.582 86.9093 176.94 86.37C181.563 86.0718 186.162 85.9731 190.794 86.0081C195.774 86.0457 200.534 87.1561 205.362 88.2702C208.601 89.0177 211.826 89.904 214.903 91.1656C217.668 92.2995 220.547 93.2485 223.247 94.5235C225.591 95.6303 227.941 96.7106 230.174 98.0322C232.082 99.1614 233.84 100.252 235.975 100.928C240.869 102.476 246.139 102.613 251.186 102.024C253.544 101.748 255.895 101.383 258.254 101.129C261.58 100.771 264.951 100.771 268.287 100.485" stroke="white" stroke-width="3" stroke-linecap="round"/>
<path d="M137.811 96.1422C137.811 97.817 138.247 99.2435 138.817 100.807C138.971 101.231 139.106 102.114 139.711 102.114C141.402 102.114 143.126 101.129 144.728 100.666C148.049 99.7072 151.552 98.8218 155.023 98.6857C156.467 98.6291 156.328 97.9018 156.451 96.5845C156.582 95.1733 156.632 93.7996 156.632 92.3821C156.632 91.4639 156.632 90.5456 156.632 89.6274" stroke="white" stroke-width="3" stroke-linecap="round"/>
<path d="M183.595 88.7226C183.174 90.5406 182.511 92.3229 182.148 94.1415C181.952 95.1182 181.994 95.2008 182.952 95.6797C186.279 97.3431 189.738 98.1182 193.287 99.1381C196.211 99.9785 199.1 101.571 202.195 101.571C203.087 101.571 203.79 100.067 204.336 99.48C205.519 98.2089 206.94 96.9815 207.986 95.5993C208.467 94.9636 208.877 94.2013 209.293 93.5182C209.639 92.9491 210.378 92.3139 210.378 91.618" stroke="white" stroke-width="3" stroke-linecap="round"/>
<path d="M236.98 103.924C236.98 104.597 236.791 107.438 237.714 107.553C239.32 107.754 240.91 108.149 242.52 108.337C245.298 108.662 248.144 108.358 250.905 108.729C252.493 108.943 254.081 109.011 255.66 109.212C256.401 109.306 258.43 110.056 258.656 108.991C258.93 107.694 259.029 106.354 259.279 105.05C259.421 104.307 259.224 103.396 259.782 102.838" stroke="white" stroke-width="3" stroke-linecap="round"/>
<path d="M132.563 52.7105C131.404 52.7105 130.362 53.0967 129.346 53.6555C128.123 54.3284 126.507 55.117 125.586 56.1891C123.072 59.1149 121.236 63.2155 121.906 67.0972C122.36 69.7225 123.177 72.2 125.174 74.0543C127.618 76.3242 131.332 77.9208 134.474 78.9102C139.664 80.5452 147.382 80.9576 150.76 75.8439C152.131 73.7692 153.606 71.8008 153.978 69.2688C154.379 66.5323 154.106 63.3282 153.264 60.6931C151.975 56.6601 148.695 53.3596 144.648 52.0269C141.75 51.0727 138.371 51.7612 135.368 51.6147C134.524 51.5735 133.663 51.2114 132.915 51.7252C132.395 52.083 131.896 52.5105 131.297 52.7105" stroke="white" stroke-width="3" stroke-linecap="round"/>
<path d="M253.267 72.4357C253.193 71.7723 251.943 71.1438 251.457 70.8472C249.997 69.9545 248.296 69.3898 246.642 68.9974C243.808 68.3249 240.991 68.0925 238.086 68.0925C235.301 68.0925 232.42 67.8795 229.651 68.2031C226.67 68.5516 223.514 69.4755 220.693 70.4853C217.61 71.5889 215.799 73.4927 215.375 76.7889C214.718 81.9 219.656 86.0235 223.609 88.2601C226.626 89.9673 229.964 90.5724 233.351 91.0651C237.165 91.6199 241.184 91.6435 245.003 91.1154C247.857 90.7206 250.921 90.0411 253.609 88.9739C255.821 88.0957 256.762 86.8382 257.248 84.5604C257.999 81.0438 258.492 77.1177 255.66 74.2856C254.726 73.3514 253.262 71.169 251.819 71.169" stroke="white" stroke-width="3" stroke-linecap="round"/>
<g filter="url(#filter0_i_16_87)">
<path d="M137.5 57L139.633 62.1824H146.535L140.951 65.3853L143.084 70.5676L137.5 67.3647L131.916 70.5676L134.049 65.3853L128.465 62.1824H135.367L137.5 57Z" fill="url(#paint0_diamond_16_87)"/>
</g>
<path d="M237.5 73L239.633 78.1824H246.535L240.951 81.3853L243.084 86.5676L237.5 83.3647L231.916 86.5676L234.049 81.3853L228.465 78.1824H235.367L237.5 73Z" fill="url(#paint1_diamond_16_87)"/>
<path d="M136.423 46.5575C138.91 46.5575 141.23 46.9154 143.672 47.4182C145.261 47.7454 146.917 48.0917 148.284 48.9782C149.6 49.8309 151.336 51.0549 152.884 51.3989C155.192 51.9119 156.927 53.9569 158.263 55.7561C160.029 58.1336 160.993 60.1146 161.356 63.0182" stroke="white" stroke-width="3" stroke-linecap="round"/>
<path d="M223.326 63.7444C224.326 63.7444 225.319 63.2139 226.231 62.8299C227.688 62.2166 229.782 62.1964 231.328 61.9289C234.897 61.3112 238.33 60.5975 241.965 60.5975C244.259 60.5975 246.387 60.7512 248.622 61.0951C249.715 61.2632 250.522 62.3433 251.406 62.8837C252.264 63.4079 253.245 63.6795 254.069 64.2285" stroke="white" stroke-width="3" stroke-linecap="round"/>
<path d="M216.79 67.6175C213.999 67.6175 211.092 71.196 210.738 73.6693" stroke="white" stroke-linecap="round"/>
<path d="M261.089 75.1217C261.089 76.8877 261.815 78.4351 261.815 80.2589C261.815 81.4065 261.815 82.5541 261.815 83.7017C261.815 84.8099 260.948 84.986 260.605 86.0148" stroke="white" stroke-linecap="round"/>
<path d="M118.026 69.5541C118.435 74.0532 121.204 76.1057 125.046 78.0265" stroke="white" stroke-linecap="round"/>
<path d="M156.515 71.9748C156.515 73.4282 155.971 74.4787 155.775 75.8479C155.541 77.4875 153.089 78.3418 152.4 79.721" stroke="white" stroke-linecap="round"/>
<path d="M128.677 81.4155C129.394 82.1328 130.864 82.6848 131.837 82.9889C133.043 83.3658 134.391 83.5494 135.643 83.5941C137.521 83.6612 139.632 85.0157 141.507 84.0783" stroke="white" stroke-linecap="round"/>
<path d="M95.0292 75.1217C93.586 75.1217 92.3664 76.0862 92.3664 77.5424C92.3664 79.7979 93.3643 80.7041 95.2712 81.6576C97.3883 82.7161 99.898 83.3375 101.753 84.8045C104.524 86.9955 105.968 89.6314 106.649 93.0348" stroke="white" stroke-linecap="round"/>
<path d="M183.347 38.4754C183.347 38.6615 183.398 39.5068 183.804 39.101C184.051 38.8541 183.809 38.4754 183.515 38.4754" stroke="white" stroke-linecap="round"/>
<path d="M180.489 39.8201C180.489 40.9806 181.316 41.6073 182.343 41.879C183.208 42.108 184.3 42.0818 185.195 42.0004C185.642 41.9598 186.018 41.6334 186.391 41.4168C186.604 41.2927 187.196 41.1138 187.296 40.9126" stroke="white" stroke-linecap="round"/>
<path d="M282.85 93.3534C282.633 93.3774 282.521 93.5889 282.513 93.7922C282.498 94.1889 282.827 94.2778 283.186 94.2778C283.48 94.2778 283.27 94.0453 283.27 93.8576C283.27 93.5984 283.298 93.5214 283.018 93.5214" stroke="white" stroke-linecap="round"/>
<path d="M279.068 92.9332C278.612 92.9901 278.882 94.1819 278.9 94.4272C278.948 95.1061 279.349 95.6918 279.656 96.2574C280.688 98.1588 282.447 98.5638 284.53 98.5638" stroke="white" stroke-linecap="round"/>
<path d="M105.946 69.2339C106.962 69.2339 107.86 69.135 108.841 68.8604C109.369 68.7126 109.815 68.3764 110.335 68.2255C110.943 68.0489 111.418 67.8576 112.002 67.5952C112.967 67.1605 114.137 66.6087 114.836 65.7883C115.611 64.8774 116.464 63.9192 117.123 62.931" stroke="white" stroke-linecap="round"/>
<path d="M149.395 38.3914C149.567 38.4105 149.718 38.5347 149.899 38.5548C150.677 38.6413 151.415 38.8554 152.201 38.9003C153.238 38.9596 154.229 38.9523 155.273 38.891C156.283 38.8315 157.288 38.8294 158.303 38.8116C159.422 38.7919 160.426 38.5749 161.496 38.3073" stroke="white" stroke-linecap="round"/>
<path d="M196.541 44.6103C196.58 45.6712 197.196 46.5351 197.736 47.4023C198.309 48.3227 199.099 49.363 199.921 50.0729C201.641 51.5581 202.92 53.4506 205.216 54.1722C206.136 54.4613 207.194 54.5522 208.138 54.7745C209.541 55.1045 210.954 55.2876 212.34 55.7036" stroke="white" stroke-linecap="round"/>
<path d="M162.263 112.011C169.377 112.011 176.488 112.125 183.602 112.125" stroke="white" stroke-linecap="round"/>
<path d="M110.895 107.674C110.895 108.695 110.484 109.941 111.304 110.79C112.507 112.036 114.061 112.323 115.73 112.509" stroke="white" stroke-linecap="round"/>
<path d="M120.856 113.089C121.914 113.089 122.991 113.15 124.047 113.084C125.578 112.988 127.049 112.316 128.592 112.316C129.903 112.316 130.937 113.186 132.256 113.186C133.764 113.186 135.224 113.109 136.715 112.896" stroke="white" stroke-linecap="round"/>
<path d="M142.71 112.702C144.26 111.949 146.521 110.814 148.276 111.354C149.189 111.635 149.939 111.735 150.887 111.735C152.033 111.735 153.147 111.874 154.218 111.445" stroke="white" stroke-linecap="round"/>
<path d="M188.741 112.412C189.442 112.338 190.178 111.672 190.868 111.451C192.024 111.081 193.191 111.328 194.35 111.563C195.368 111.77 196.397 111.811 197.396 112.122C198.52 112.472 199.65 112.702 200.829 112.702C202.174 112.702 203.529 112.754 204.869 112.606C206.331 112.443 207.716 112.139 209.151 111.832C212.208 111.177 215.202 110.965 218.235 111.832" stroke="white" stroke-linecap="round"/>
<path d="M232.934 112.316C233.876 112.316 234.81 112.122 235.76 112.122C236.509 112.122 237.269 112.087 238.016 112.144C238.47 112.178 239.143 112.146 239.558 112.369C241.812 113.583 244.188 113.251 246.666 113.476" stroke="white" stroke-linecap="round"/>
<path d="M264.459 113.379C265.285 113.462 266.129 113.743 266.973 113.841C267.946 113.954 268.852 114.032 269.831 113.965C270.914 113.89 272.055 114.115 273.109 113.82C273.459 113.722 273.782 113.564 274.135 113.476C274.5 113.385 274.81 113.089 275.193 113.089" stroke="white" stroke-linecap="round"/>
<path d="M280.705 112.992C281.929 112.992 283.269 113.118 284.476 112.649C285.413 112.284 286.227 111.729 286.846 110.967C287.565 110.082 287.764 109.057 287.764 107.889C287.764 107.181 287.56 105.002 288.538 104.676" stroke="white" stroke-linecap="round"/>
</g>
<defs>
<filter id="filter0_i_16_87" x="128.465" y="57" width="18.0701" height="17.5676" filterUnits="userSpaceOnUse" color-interpolation-filters="sRGB">
<feFlood flood-opacity="0" result="BackgroundImageFix"/>
<feBlend mode="normal" in="SourceGraphic" in2="BackgroundImageFix" result="shape"/>
<feColorMatrix in="SourceAlpha" type="matrix" values="0 0 0 0 0 0 0 0 0 0 0 0 0 0 0 0 0 0 127 0" result="hardAlpha"/>
<feOffset dy="4"/>
<feGaussianBlur stdDeviation="2"/>
<feComposite in2="hardAlpha" operator="arithmetic" k2="-1" k3="1"/>
<feColorMatrix type="matrix" values="0 0 0 0 0 0 0 0 0 0 0 0 0 0 0 0 0 0 0.25 0"/>
<feBlend mode="normal" in2="shape" result="effect1_innerShadow_16_87"/>
</filter>
<radialGradient id="paint0_diamond_16_87" cx="0" cy="0" r="1" gradientUnits="userSpaceOnUse" gradientTransform="translate(137.5 64.5) rotate(86.8202) scale(9.01388 11.4176)">
<stop offset="0.4375" stop-color="#FF0000"/>
<stop offset="1" stop-color="#FF0000" stop-opacity="0"/>
</radialGradient>
<radialGradient id="paint1_diamond_16_87" cx="0" cy="0" r="1" gradientUnits="userSpaceOnUse" gradientTransform="translate(237.5 80.5) rotate(90) scale(7.5 9.5)">
<stop offset="0.140625" stop-color="#FF0000"/>
<stop offset="1" stop-color="#FF0000" stop-opacity="0"/>
</radialGradient>
<clipPath id="clip0_16_87">
<rect width="388" height="115" fill="white"/>
</clipPath>
</defs>
</svg>
